<?xml version="1.0" encoding="UTF-8"?>
<svg id="Layer_1" data-name="Layer 1" xmlns="http://www.w3.org/2000/svg" viewBox="0 0 1080 1080">
  <defs>
    <style>
      .cls-1 {
        stroke-width: 3px;
      }

      .cls-1, .cls-2 {
        stroke: #01161e;
        stroke-miterlimit: 10;
      }

      .cls-1, .cls-2, .cls-3 {
        fill: #01161e;
      }

      .cls-2 {
        stroke-width: 10px;
      }
    </style>
  </defs>
  <g>
    <g id="_Radial_Repeat_" data-name="&amp;lt;Radial Repeat&amp;gt;">
      <path class="cls-1" d="M547.25,609.06l-7.09-7.05-7.05,7.09c-46.82,47.07-72.51,109.55-72.33,175.94.18,66.4,26.2,128.74,73.27,175.56l7.09,7.06,7.05-7.09c46.82-47.07,72.51-109.56,72.33-175.95s-26.2-128.74-73.27-175.56ZM541.1,953.52c-46.87-46.62-70.32-107.88-70.32-169.14s23.13-121.69,69.42-168.23c93.41,92.91,93.81,243.96.9,337.37Z"/>
    </g>
    <g id="_Radial_Repeat_-2" data-name="&amp;lt;Radial Repeat&amp;gt;">
      <path class="cls-1" d="M476.72,568.58c-20.92-5.54-42.41-8.35-63.85-8.35-112.5,0-211.24,76.04-240.1,184.92l-2.56,9.66,9.66,2.57c20.92,5.54,42.4,8.35,63.85,8.35,112.5,0,211.24-76.04,240.1-184.92l2.56-9.66-9.66-2.57ZM182.44,747.71c28.33-106.87,124.86-177.48,230.43-177.48,20.23,0,40.8,2.59,61.28,8.02-33.76,127.35-164.36,203.22-291.71,169.46Z"/>
    </g>
    <g id="_Radial_Repeat_-3" data-name="&amp;lt;Radial Repeat&amp;gt;">
      <path class="cls-1" d="M483.6,499.49c-29.28-108.13-127.87-183.65-239.77-183.65-21.88,0-43.79,2.93-65.11,8.7l-9.65,2.62,2.61,9.65c29.28,108.12,127.88,183.64,239.77,183.64h.01c21.88,0,43.79-2.92,65.1-8.7l9.66-2.61-2.62-9.65ZM181.34,334.19c74.02-20.04,149.34-2.95,206.16,39.92,40.8,30.78,72.06,74.85,86.45,127.99-127.17,34.44-258.18-40.74-292.61-167.91Z"/>
    </g>
    <g id="_Radial_Repeat_-4" data-name="&amp;lt;Radial Repeat&amp;gt;">
      <path class="cls-1" d="M545.95,119.4l-7.09-7.06-7.05,7.09c-46.82,47.07-72.51,109.56-72.33,175.95.18,66.39,26.2,128.74,73.27,175.56l7.09,7.05,7.05-7.09c46.82-47.07,72.51-109.55,72.33-175.94-.18-66.4-26.2-128.74-73.27-175.56ZM539.8,463.85c-93.41-92.91-93.81-243.96-.9-337.36,46.87,46.62,70.32,107.87,70.32,169.13s-23.13,121.69-69.42,168.23Z"/>
    </g>
    <g id="_Radial_Repeat_-5" data-name="&amp;lt;Radial Repeat&amp;gt;">
      <path class="cls-1" d="M900.13,322.62c-20.92-5.54-42.4-8.35-63.85-8.35-112.5,0-211.24,76.04-240.1,184.92l-2.56,9.66,9.66,2.57c20.92,5.54,42.4,8.35,63.85,8.35,112.5,0,211.24-76.04,240.1-184.92l2.56-9.66-9.66-2.57ZM667.13,509.77c-20.23,0-40.8-2.59-61.28-8.02,33.76-127.35,164.36-203.22,291.72-169.46-28.34,106.87-124.87,177.48-230.44,177.48Z"/>
    </g>
    <g id="_Radial_Repeat_-6" data-name="&amp;lt;Radial Repeat&amp;gt;">
      <path class="cls-1" d="M908.32,743.19c-29.28-108.13-127.88-183.64-239.77-183.64-21.89,0-43.8,2.92-65.12,8.7l-9.65,2.61,2.62,9.65c29.28,108.13,127.87,183.65,239.76,183.65h.01c21.88,0,43.79-2.93,65.11-8.7l9.65-2.62-2.61-9.65ZM804.54,749.01c-30.17-4.12-58.93-13.93-85.47-29.16-26.53-15.22-49.51-35.1-68.29-59.07-18.83-24.04-32.63-51.19-41.03-80.76,29.77-7.66,60.17-9.45,90.42-5.32,30.18,4.12,58.93,13.92,85.47,29.15,26.53,15.23,49.51,35.11,68.3,59.08,18.83,24.03,32.62,51.19,41.02,80.75-29.76,7.67-60.17,9.46-90.42,5.33Z"/>
    </g>
  </g>
  <g>
    <path class="cls-3" d="M540,589.92c-2.05,0-4.07-.54-5.85-1.57l-33.1-19.12c-3.61-2.08-5.85-5.96-5.85-10.13v-38.22c0-4.17,2.24-8.05,5.85-10.13l33.1-19.12c1.78-1.02,3.8-1.57,5.85-1.57s4.07.54,5.85,1.56l33.1,19.12c3.61,2.08,5.85,5.96,5.85,10.13v38.22c0,4.17-2.24,8.05-5.85,10.13l-33.1,19.12c-1.78,1.03-3.8,1.57-5.85,1.57ZM526.11,507.24c-3.1,0-5.99,1.67-7.54,4.35l-13.89,24.06c-1.54,2.68-1.54,6.02,0,8.7l13.89,24.06c1.55,2.68,4.44,4.35,7.54,4.35h27.78c3.1,0,5.99-1.67,7.54-4.35l13.89-24.06c1.54-2.68,1.54-6.02,0-8.7l-13.89-24.06c-1.55-2.68-4.44-4.35-7.54-4.35h-27.78Z"/>
    <path class="cls-3" d="M540,491.58c1.76,0,3.52.45,5.1,1.36l33.1,19.12c3.16,1.82,5.1,5.18,5.1,8.83v38.22c0,3.65-1.94,7.01-5.1,8.83l-33.1,19.12c-1.58.91-3.34,1.36-5.1,1.36s-3.52-.46-5.1-1.36l-33.1-19.12c-3.16-1.82-5.1-5.18-5.1-8.83v-38.22c0-3.65,1.94-7.01,5.1-8.83l33.1-19.12c1.58-.91,3.34-1.36,5.1-1.36M526.11,574.26h27.78c3.65,0,7.01-1.94,8.84-5.1l13.89-24.06c1.82-3.16,1.82-7.04,0-10.2l-13.89-24.06c-1.83-3.16-5.19-5.1-8.84-5.1h-27.78c-3.65,0-7.01,1.94-8.84,5.1l-13.89,24.06c-1.82,3.16-1.82,7.04,0,10.2l13.89,24.06c1.83,3.16,5.19,5.1,8.84,5.1M540,488.58c-2.31,0-4.59.61-6.6,1.77l-33.1,19.12c-4.07,2.34-6.6,6.72-6.6,11.43v38.22c0,4.7,2.53,9.08,6.6,11.43l33.1,19.12c2.01,1.16,4.29,1.77,6.6,1.77s4.59-.61,6.6-1.77l33.1-19.12c4.07-2.34,6.6-6.72,6.6-11.43v-38.22c0-4.7-2.53-9.08-6.6-11.43l-33.1-19.12c-2.01-1.16-4.29-1.77-6.6-1.77h0ZM526.11,571.26c-2.56,0-4.96-1.38-6.24-3.6l-13.89-24.06c-1.28-2.22-1.28-4.98,0-7.2l13.89-24.06c1.29-2.22,3.68-3.6,6.24-3.6h27.78c2.56,0,4.96,1.38,6.24,3.6l13.89,24.06c1.28,2.22,1.28,4.98,0,7.2l-13.89,24.06c-1.29,2.22-3.68,3.6-6.24,3.6h-27.78Z"/>
  </g>
  <path class="cls-2" d="M479.96,574.62l18.39-9.94-18.39,9.94Z"/>
  <line class="cls-2" x1="540.16" y1="608.85" x2="540.16" y2="588.42"/>
  <line class="cls-2" x1="604.71" y1="577.44" x2="582.13" y2="563.84"/>
  <line class="cls-2" x1="601.27" y1="504.26" x2="581.97" y2="515.85"/>
  <line class="cls-2" x1="539.84" y1="471.07" x2="539.84" y2="491.58"/>
  <path class="cls-2" d="M479.96,505.74l18.2,9.89-18.2-9.89Z"/>
</svg>